<?xml version="1.0" encoding="utf-8"?>
<!-- Generator: Adobe Illustrator 21.1.0, SVG Export Plug-In . SVG Version: 6.00 Build 0)  -->
<svg version="1.1" id="Capa_1" xmlns="http://www.w3.org/2000/svg" xmlns:xlink="http://www.w3.org/1999/xlink" x="0px" y="0px"
	 viewBox="0 0 19 19" style="enable-background:new 0 0 19 19;" xml:space="preserve">
<style type="text/css">
	.st0{fill:#018E54;}
</style>
<g>
	<g>
		<path class="st0" d="M9.5,0C4.3,0,0,4.3,0,9.5S4.3,19,9.5,19S19,14.7,19,9.5S14.7,0,9.5,0z M9.5,17C5.4,17,2,13.6,2,9.5
			S5.4,2,9.5,2S17,5.4,17,9.5S13.6,17,9.5,17z"/>
		<path class="st0" d="M14.4,9.2h-4.3V4.1c0-0.4-0.4-0.8-0.8-0.8S8.6,3.6,8.6,4.1V10c0,0.4,0.4,0.8,0.8,0.8h5c0.4,0,0.8-0.4,0.8-0.8
			S14.9,9.2,14.4,9.2z"/>
	</g>
</g>
</svg>
