<?xml version="1.0" encoding="utf-8"?>
<!-- Generator: Adobe Illustrator 21.1.0, SVG Export Plug-In . SVG Version: 6.00 Build 0)  -->
<svg version="1.1" id="Capa_1" xmlns="http://www.w3.org/2000/svg" xmlns:xlink="http://www.w3.org/1999/xlink" x="0px" y="0px"
	 viewBox="0 0 25 26" style="enable-background:new 0 0 25 26;" xml:space="preserve">
<style type="text/css">
	.st0{fill:#FFD949;}
	.st1{fill:#F4BF1A;}
	.st2{fill:#DCA815;}
</style>
<g id="XMLID_100_">
	<path id="XMLID_99_" class="st0" d="M13.9,26C7.7,26,2.7,20.2,2.7,13s5-13,11.1-13S25,5.8,25,13S20,26,13.9,26"/>
	<path id="XMLID_132_" class="st1" d="M2.7,13C2.7,6.4,7,0.9,12.5,0.1C12.1,0,11.6,0,11.1,0C5,0,0,5.8,0,13s5,13,11.1,13
		c0.5,0,0.9,0,1.4-0.1C7,25.1,2.7,19.6,2.7,13"/>
	<path id="XMLID_115_" class="st1" d="M13.9,23.5L13.9,23.5c-0.4,0-0.7,0-1-0.1c-0.2,0-0.4-0.3-0.4-0.5c0-0.3,0.3-0.4,0.5-0.4
		c0.3,0,0.6,0.1,0.8,0.1c0.3,0,0.5,0.2,0.5,0.5C14.3,23.2,14.2,23.5,13.9,23.5 M16.5,23c-0.2,0-0.4-0.1-0.4-0.3
		c-0.1-0.2,0-0.5,0.3-0.6c0.3-0.1,0.5-0.2,0.8-0.4c0.2-0.1,0.5,0,0.6,0.2c0.1,0.2,0,0.5-0.2,0.6c-0.3,0.1-0.6,0.3-0.9,0.4
		C16.7,22.9,16.6,23,16.5,23 M10.4,22.6c-0.1,0-0.1,0-0.2-0.1c-0.3-0.1-0.6-0.3-0.8-0.5c-0.2-0.1-0.3-0.4-0.1-0.6
		c0.1-0.2,0.4-0.3,0.6-0.1c0.2,0.2,0.5,0.3,0.7,0.4c0.2,0.1,0.3,0.4,0.2,0.6C10.7,22.5,10.6,22.6,10.4,22.6 M19.5,21
		c-0.1,0-0.2,0-0.3-0.1c-0.2-0.2-0.2-0.5,0-0.7c0.2-0.2,0.4-0.4,0.6-0.7c0.2-0.2,0.4-0.2,0.6-0.1c0.2,0.2,0.2,0.5,0.1,0.7
		c-0.2,0.3-0.4,0.5-0.6,0.7C19.8,20.9,19.7,21,19.5,21 M7.6,20.3c-0.1,0-0.3-0.1-0.4-0.2c-0.2-0.2-0.4-0.5-0.6-0.8
		c-0.1-0.2-0.1-0.5,0.1-0.6c0.2-0.1,0.5-0.1,0.6,0.1c0.2,0.2,0.3,0.5,0.5,0.7c0.2,0.2,0.1,0.5-0.1,0.7C7.8,20.3,7.7,20.3,7.6,20.3
		 M21.5,17.9c-0.1,0-0.1,0-0.2,0c-0.2-0.1-0.3-0.4-0.2-0.6c0.1-0.3,0.2-0.5,0.3-0.8c0.1-0.2,0.3-0.4,0.6-0.3
		c0.2,0.1,0.4,0.3,0.3,0.6c-0.1,0.3-0.2,0.6-0.3,0.9C21.9,17.8,21.7,17.9,21.5,17.9 M5.9,17.1c-0.2,0-0.4-0.1-0.4-0.3
		c-0.1-0.3-0.2-0.6-0.3-0.9c-0.1-0.2,0.1-0.5,0.3-0.6c0.2-0.1,0.5,0.1,0.6,0.3c0.1,0.3,0.2,0.6,0.2,0.8c0.1,0.2,0,0.5-0.3,0.6
		C6,17.1,5.9,17.1,5.9,17.1 M22.4,14.4C22.4,14.4,22.4,14.4,22.4,14.4c-0.3,0-0.5-0.2-0.5-0.5c0-0.3,0-0.6,0-0.9
		c0-0.3,0.2-0.5,0.5-0.5s0.5,0.2,0.5,0.4v0c0,0.3,0,0.6,0,0.9C22.8,14.2,22.6,14.4,22.4,14.4 M5.3,13.5c-0.3,0-0.5-0.2-0.5-0.5v0
		c0-0.3,0-0.6,0-0.9c0-0.3,0.2-0.4,0.5-0.4c0.3,0,0.4,0.2,0.4,0.5c0,0.3,0,0.6,0,0.9C5.8,13.3,5.6,13.5,5.3,13.5 M22.1,10.7
		c-0.2,0-0.4-0.1-0.4-0.4c-0.1-0.3-0.2-0.6-0.2-0.8c-0.1-0.2,0-0.5,0.3-0.6c0.2-0.1,0.5,0,0.6,0.3c0.1,0.3,0.2,0.6,0.3,0.9
		c0.1,0.2-0.1,0.5-0.3,0.6C22.2,10.7,22.1,10.7,22.1,10.7 M5.9,9.9c0,0-0.1,0-0.1,0C5.5,9.8,5.4,9.5,5.4,9.2
		c0.1-0.3,0.2-0.6,0.3-0.9C5.9,8.1,6.2,8,6.4,8.1c0.2,0.1,0.3,0.4,0.2,0.6C6.5,9,6.4,9.3,6.3,9.5C6.2,9.7,6.1,9.9,5.9,9.9 M20.6,7.4
		c-0.1,0-0.3-0.1-0.4-0.2c-0.2-0.2-0.3-0.5-0.5-0.7c-0.2-0.2-0.1-0.5,0.1-0.7c0.2-0.2,0.5-0.1,0.6,0.1c0.2,0.2,0.4,0.5,0.6,0.8
		c0.1,0.2,0.1,0.5-0.1,0.6C20.8,7.3,20.7,7.4,20.6,7.4 M7.6,6.6c-0.1,0-0.2,0-0.3-0.1C7.1,6.4,7.1,6.1,7.3,5.9
		c0.2-0.3,0.4-0.5,0.6-0.7C8.1,5,8.3,5,8.5,5.2c0.2,0.2,0.2,0.5,0,0.7C8.3,6,8.1,6.2,8,6.5C7.9,6.6,7.7,6.6,7.6,6.6 M18.1,4.8
		c-0.1,0-0.2,0-0.2-0.1c-0.2-0.2-0.5-0.3-0.7-0.4c-0.2-0.1-0.3-0.4-0.2-0.6c0.1-0.2,0.4-0.3,0.6-0.2c0.3,0.1,0.6,0.3,0.8,0.5
		c0.2,0.1,0.3,0.4,0.1,0.6C18.4,4.7,18.2,4.8,18.1,4.8 M10.4,4.3c-0.2,0-0.3-0.1-0.4-0.3c-0.1-0.2,0-0.5,0.2-0.6
		c0.3-0.1,0.6-0.3,0.9-0.4c0.2-0.1,0.5,0,0.6,0.3c0.1,0.2,0,0.5-0.3,0.6c-0.3,0.1-0.5,0.2-0.8,0.3C10.5,4.3,10.4,4.3,10.4,4.3
		 M14.7,3.5C14.7,3.5,14.7,3.5,14.7,3.5c-0.3,0-0.6-0.1-0.9-0.1c-0.3,0-0.5-0.2-0.5-0.5s0.2-0.5,0.4-0.5h0c0.3,0,0.6,0,0.9,0.1
		c0.2,0,0.4,0.3,0.4,0.5C15.2,3.3,15,3.5,14.7,3.5"/>
	<path id="XMLID_114_" class="st2" d="M2.7,13.5H0c0,0.3,0,0.6,0.1,0.9h2.7C2.8,14.1,2.7,13.8,2.7,13.5"/>
	<path id="XMLID_113_" class="st2" d="M2.8,11.1H0.1c0,0.3-0.1,0.6-0.1,0.9h2.7C2.8,11.8,2.8,11.4,2.8,11.1"/>
	<path id="XMLID_112_" class="st2" d="M3,15.8H0.2c0.1,0.3,0.1,0.6,0.2,0.9h2.7C3.1,16.4,3,16.1,3,15.8"/>
	<path id="XMLID_111_" class="st2" d="M3.6,18.1H0.9C1,18.4,1.1,18.7,1.3,19H4C3.9,18.7,3.7,18.4,3.6,18.1"/>
	<path id="XMLID_110_" class="st2" d="M3.3,8.8H0.6C0.5,9.1,0.4,9.4,0.3,9.8h2.7C3.1,9.4,3.2,9.1,3.3,8.8"/>
	<path id="XMLID_109_" class="st2" d="M4.2,6.5H1.5C1.3,6.8,1.2,7.1,1.1,7.4h2.7C3.9,7.1,4.1,6.8,4.2,6.5"/>
	<path id="XMLID_108_" class="st2" d="M6.1,3.7H3.3C3.1,4,2.8,4.3,2.6,4.6h2.7C5.6,4.3,5.8,4,6.1,3.7"/>
	<path id="XMLID_107_" class="st2" d="M8.8,1.4H6.1C5.6,1.7,5.2,2,4.8,2.3h2.7C7.9,2,8.4,1.7,8.8,1.4"/>
	<path id="XMLID_106_" class="st2" d="M5,20.9H2.3c0.2,0.3,0.4,0.6,0.7,0.9h2.7C5.4,21.5,5.2,21.2,5,20.9"/>
	<path id="XMLID_105_" class="st2" d="M4.2,23.2c0.4,0.3,0.7,0.6,1.1,0.9h2.7c-0.4-0.3-0.8-0.6-1.2-0.9H4.2z"/>
</g>
</svg>
