<?xml version="1.0" encoding="utf-8"?>
<!-- Generator: Adobe Illustrator 21.1.0, SVG Export Plug-In . SVG Version: 6.00 Build 0)  -->
<svg version="1.1" id="Layer_1" xmlns="http://www.w3.org/2000/svg" xmlns:xlink="http://www.w3.org/1999/xlink" x="0px" y="0px"
	 viewBox="0 0 29 25.2" style="enable-background:new 0 0 29 25.2;" xml:space="preserve">
<style type="text/css">
	.st0{fill:#1CC2F3;}
</style>
<path class="st0" d="M28.8,8.1c-6.3-8.3-5.8-7.8-5.9-7.9C22.7,0.1,22.5,0,22.2,0H6.8C6.5,0,6.2,0.1,6,0.4L0.2,8.1
	c-0.3,0.4-0.3,0.9,0,1.2l13.5,15.5c0,0,0,0,0,0h0c0,0,0,0,0,0c0.4,0.4,1.1,0.5,1.5,0L28.8,9.3C29.1,9,29.1,8.5,28.8,8.1z M20.9,1.9
	l-1.4,4.1l-3.1-4.1H20.9z M18.4,7.7h-7.7l3.9-5.2L18.4,7.7z M12.6,1.9L9.5,6.1L8.1,1.9H12.6z M6.4,3L8,7.7H2.9L6.4,3z M3.1,9.7h5.5
	L12.1,20L3.1,9.7z M14.5,21.2L10.7,9.7h7.6L14.5,21.2z M16.9,20l3.4-10.3h5.5L16.9,20z M21,7.7L22.6,3l3.5,4.7H21z"/>
</svg>
