<?xml version="1.0" encoding="utf-8"?>
<!-- Generator: Adobe Illustrator 21.1.0, SVG Export Plug-In . SVG Version: 6.00 Build 0)  -->
<svg version="1.1" id="Layer_1" xmlns="http://www.w3.org/2000/svg" xmlns:xlink="http://www.w3.org/1999/xlink" x="0px" y="0px"
	 viewBox="0 0 20 20" style="enable-background:new 0 0 20 20;" xml:space="preserve">
<style type="text/css">
	.st0{fill:#FFFFFF;}
</style>
<g>
	<path class="st0" d="M17.4,0H2.7C1.2,0,0,1.2,0,2.7v14.5C0,18.6,1.2,20,2.7,20h7.2v-7.3H8c-0.2,0-0.4-0.2-0.4-0.4V9.9
		c0-0.2,0.2-0.4,0.4-0.4h1.9V7.3c0-2.6,1.6-4,3.9-4h1.9c0.2,0,0.4,0.1,0.4,0.4v1.9C16,5.8,15.9,6,15.6,6h-1.1C13.2,6,13,6.6,13,7.5
		v1.9h2.8c0.2,0,0.5,0.2,0.4,0.5L16,12.4c0,0.2-0.2,0.4-0.4,0.4H13V20h4.4c1.5,0,2.6-1.1,2.6-2.6V2.9C20,1.2,18.9,0,17.4,0L17.4,0z"
		/>
</g>
</svg>
