<?xml version="1.0" encoding="utf-8"?>
<!-- Generator: Adobe Illustrator 21.1.0, SVG Export Plug-In . SVG Version: 6.00 Build 0)  -->
<svg version="1.1" id="Capa_1" xmlns="http://www.w3.org/2000/svg" xmlns:xlink="http://www.w3.org/1999/xlink" x="0px" y="0px"
	 viewBox="0 0 20 25" style="enable-background:new 0 0 20 25;" xml:space="preserve">
<style type="text/css">
	.st0{fill:#018E54;}
</style>
<g>
	<g>
		<path class="st0" d="M1.7,4.2c-0.1-0.4-0.6-0.7-1-0.6C0.2,3.8-0.1,4.2,0,4.6l5.5,19.8C5.6,24.8,6,25,6.3,25c0.1,0,0.1,0,0.2,0
			C7,24.9,7.3,24.5,7.2,24L1.7,4.2z"/>
		<path class="st0" d="M20,9.8c-0.9-3-1.8-6-2.7-9.1C17.2,0.4,17,0.1,16.4,0C11.3-0.3,8,4.3,3,3.9c-0.4,0-0.7,0.1-0.6,0.5
			c0.9,3,1.8,6.1,2.7,9.1C5.3,14,5.6,14.1,6,14.2c5,0.3,8.4-4.3,13.4-3.9C19.8,10.3,20.1,10.1,20,9.8z M16,1.2
			c0.2,0.8,0.5,1.7,0.7,2.5c-1.1,0-2,0.2-3,0.6c-0.2-0.8-0.5-1.7-0.7-2.5C14,1.4,15,1.2,16,1.2z M5.6,10.5C5.3,9.6,5.1,8.6,4.8,7.7
			c1.1,0,2.1-0.2,3.1-0.6C7.7,6.2,7.4,5.4,7.2,4.5c1-0.4,2-0.9,2.9-1.4c0.2,0.8,0.5,1.7,0.7,2.5c-1,0.5-1.9,1-2.9,1.4
			C8.2,8,8.5,8.9,8.8,9.9C7.7,10.3,6.7,10.5,5.6,10.5z M9.5,12.4C9.3,11.6,9,10.7,8.8,9.9c1-0.4,2-0.9,2.9-1.4
			c0.3,0.8,0.5,1.7,0.8,2.5C11.5,11.5,10.5,12,9.5,12.4z M11.7,8.5c-0.3-0.9-0.6-1.9-0.8-2.8c1-0.5,1.9-1,2.9-1.4
			c0.3,0.9,0.6,1.9,0.8,2.8C13.6,7.5,12.6,8,11.7,8.5z M15.4,9.6c-0.3-0.8-0.5-1.7-0.8-2.5c1-0.3,1.9-0.5,3-0.6
			c0.3,0.8,0.5,1.7,0.8,2.5C17.3,9.1,16.4,9.3,15.4,9.6z"/>
	</g>
</g>
</svg>
