<?xml version="1.0" encoding="utf-8"?>
<!-- Generator: Adobe Illustrator 21.1.0, SVG Export Plug-In . SVG Version: 6.00 Build 0)  -->
<svg version="1.1" id="Layer_1" xmlns="http://www.w3.org/2000/svg" xmlns:xlink="http://www.w3.org/1999/xlink" x="0px" y="0px"
	 viewBox="0 0 339.5 116.5" style="enable-background:new 0 0 339.5 116.5;" xml:space="preserve">
<style type="text/css">
	.st0{fill:#008E54;}
	.st1{fill:#CC6F28;}
	.st2{fill:#E8812F;}
	.st3{fill:#D1A471;}
	.st4{fill:#FFFFFF;}
	.st5{fill:#B0612C;}
	.st6{fill:#ECC202;}
	.st7{fill:#413F3F;}
	.st8{fill:#E8BB80;}
	.st9{fill:#D27334;}
	.st10{fill:#FFE1B9;}
	.st11{fill:#2D2D2D;}
	.st12{fill:#515151;}
	.st13{fill:#BB672E;}
</style>
<polygon class="st0" points="48.4,20.6 91.9,20.6 91.8,76.2 48.4,98.7 "/>
<polygon class="st0" points="43.5,20.6 -0.1,20.6 0,76.2 43.5,98.7 "/>
<path class="st1" d="M91.8,76.2L65.1,34.5L45.9,52.9L26.7,34.5L0,76.2c0,14.7,9.9,24.3,20.4,30.5h0c1,0.6,2,1.2,3.1,1.7
	c6.3,3.3,13,5.6,19.8,7.7c1.8,0.5,3.4,0.6,5.2,0c7.8-2.3,15.3-5,22.4-9.1c0.2-0.1,0.4-0.2,0.6-0.3h0C82,100.5,91.8,90.8,91.8,76.2"
	/>
<polygon class="st0" points="43.5,20.6 -0.1,20.6 0,76.2 43.5,98.7 "/>
<path class="st2" d="M45.9,52.9L26.7,34.5L0,76.2c0,14.7,9.9,24.3,20.4,30.5h0c1,0.6,2,1.2,3.1,1.7c6.3,3.3,13,5.6,19.8,7.7
	c0.9,0.3,1.7,0.4,2.6,0.4V52.9z"/>
<path class="st3" d="M46.2,64.6c16.1,0,26.6-6.1,27.6-16.6c-1.4-2.7-3.8-5-5.5-7.7c-0.8-1.2-1.5-2.5-2.3-3.7
	c-0.5-0.8-1.2-6.7-1.9-6.7c-3.1-0.1-10.2-0.1-15.4-0.1c0,0-1.5,0-1.5,0l1.8,17c0.1,1.1-0.4,2.2-1.6,2.2c-0.3,0-0.6,0-1,0
	c-0.1,0-0.2,0-0.3,0"/>
<path class="st5" d="M55.2,55.4c1,0,2,0.2,3,0.4c3.9,1,7.4,2.5,10.1,5.8c3.1,3.8,4,8.7,4.2,13.5c0.2,5.1-0.3,10.1-0.9,15.1
	c-0.1,0.9-0.6,2.4-0.3,3.3c0.3,1,1.4,1.6,1.5,2.8c0.2,1.9-2.6,3.4-0.9,5.1c-2.7,0.7-5.2-3.2-4.7-5.5c0.3-1.6,1.5-1.6,1.2-3.3
	c-0.3-1.8-0.8-3.6-1.2-5.4c-0.7-3.4-1.3-6.9-2.2-10.3c-0.7-2.6-2.2-5.4-5-5.8c-3.2-0.5-6.6,0.6-9.7-0.6c-2.9-1.2-4.4-4.3-4.4-7.3
	c0-0.3-0.2-1.9,0-2.1c0.2-0.2,1.6-0.4,1.9-0.6c0.5-0.3,0.8-0.8,1.3-1.1c0.7-0.3,1.4-0.2,2.1-0.4c0.5-0.2,1-0.5,1.3-0.9
	c0.5-0.6,0.3-1.3,0.6-1.8C53.6,55.5,54.3,55.4,55.2,55.4"/>
<path class="st6" d="M71.4,94.3h-3c-0.6,0-1.1-0.5-1.1-1.1v0c0-0.6,0.5-1.1,1.1-1.1h3c0.6,0,1.1,0.5,1.1,1.1v0
	C72.4,93.8,71.9,94.3,71.4,94.3"/>
<rect x="46.2" y="61.5" class="st5" width="1.7" height="1.5"/>
<path class="st7" d="M53.7,43.5c1.2-4,7.8-3.7,9.2,0c0.3,0.7,1.5,0.4,1.2-0.3c-1.8-4.8-10-5.2-11.6,0C52.3,43.9,53.5,44.2,53.7,43.5
	"/>
<path class="st3" d="M45.6,64.6C29.5,64.6,19,58.5,18,48c1.4-2.7,3.8-5,5.5-7.7c0.8-1.2,1.5-2.5,2.3-3.7c0.5-0.8,1.2-1.8,1.9-1.9
	c3.1-0.1,10.2-0.1,15.4-0.1c0,0,1.5,0,1.5,0l-1.8,12.2c-0.1,1.1,0.4,2.2,1.6,2.2c0.3,0,0.6,0,1,0c0.1,0,0.2,0,0.3,0"/>
<path class="st8" d="M45.6,64.6C29.5,64.6,19,58.5,18,48c1.4-2.7,3.8-5,5.5-7.7c0.8-1.2,1.5-2.5,2.3-3.7c0.5-0.8,1.2-4.3,1.9-4.3
	c3.1-0.1,10.2-0.1,15.4-0.1c0,0,1.5,0,1.5,0l-1.8,14.6c-0.1,1.1,0.4,2.2,1.6,2.2c0.3,0,0.6,0,1,0c0.1,0,0.2,0,0.3,0"/>
<path class="st9" d="M36.7,55.4c-1,0-2,0.2-3,0.4c-3.9,1-7.4,2.5-10.1,5.8c-3.1,3.8-4,8.7-4.2,13.5c-0.2,5.1,0.3,10.1,0.9,15.1
	c0.1,0.9,0.6,2.4,0.3,3.3c-0.3,1-1.4,1.6-1.5,2.8c-0.2,1.9,2.6,3.4,0.9,5.1c2.7,0.7,5.2-3.2,4.7-5.5c-0.3-1.6-1.5-1.6-1.2-3.3
	c0.3-1.8,0.8-3.6,1.2-5.4c0.7-3.4,1.3-6.9,2.2-10.3c0.7-2.6,2.2-5.4,5-5.8c3.2-0.5,6.6,0.6,9.7-0.6c2.9-1.2,4.4-4.2,4.4-7.3
	c0-0.3,0.2-1.9,0-2.1c-0.2-0.2-1.6-0.4-1.9-0.6c-0.5-0.3-0.8-0.8-1.3-1.1c-0.7-0.3-1.4-0.2-2.1-0.4c-0.5-0.2-1-0.5-1.3-0.9
	c-0.5-0.6-0.3-1.3-0.6-1.8C38.3,55.5,37.5,55.4,36.7,55.4"/>
<path class="st6" d="M20.5,94.3h3c0.6,0,1.1-0.5,1.1-1.1v0c0-0.6-0.5-1.1-1.1-1.1h-3c-0.6,0-1.1,0.5-1.1,1.1v0
	C19.4,93.8,19.9,94.3,20.5,94.3"/>
<rect x="44.2" y="61.5" class="st9" width="1.7" height="2.2"/>
<polygon class="st5" points="47.6,61.5 45.9,61.5 45.9,63.6 45.9,63.7 47.6,63.7 "/>
<path class="st7" d="M38.1,43.5c-1.2-4-7.8-3.7-9.2,0c-0.3,0.7-1.5,0.4-1.2-0.3c1.8-4.8,10-5.2,11.6,0
	C39.5,43.9,38.3,44.2,38.1,43.5"/>
<path class="st10" d="M50.6,53.8c-0.4,0-0.7-0.3-0.8-0.7l-0.9-8.8C48.1,44.9,47.1,49,46,49c0,0-0.1,0-0.1,0c0,0-0.1,0-0.1,0
	c-1.1,0-2.1-4.1-2.9-4.7L42,53.2c0,0.4-0.4,0.7-0.8,0.7c-2,0-3.6,1.3-3.6,2.8c0,1.6,1.6,2.8,3.6,2.8h0c0.5,0,1,0.2,1.4,0.6
	c0.7,0.8,1.8,1.3,3,1.3c0.1,0,0.1,0,0.2,0c0.1,0,0.1,0,0.2,0c1.2,0,2.3-0.5,3-1.3c0.3-0.4,0.8-0.6,1.4-0.6h0c2,0,3.6-1.3,3.6-2.8
	C54.2,55.1,52.6,53.8,50.6,53.8"/>
<path class="st4" d="M127.6,56.4c-0.8-0.8-1.6-1.5-2.4-1.8c-0.8-0.4-1.7-0.6-2.6-0.6c-1.1,0-2,0.3-2.7,1c-0.7,0.7-1.1,1.5-1.1,2.5
	c0,0.9,0.3,1.6,0.8,2.3c0.6,0.7,1.6,1.5,3,2.4c2.2,1.4,3.7,2.7,4.6,3.9c0.9,1.2,1.3,2.6,1.3,4.3c0,2.2-0.8,4-2.3,5.5
	c-1.6,1.5-3.5,2.2-5.9,2.2c-1.2,0-2.2-0.1-3-0.3c-0.8-0.2-1.8-0.5-2.9-0.9v-5c0.8,1,1.7,1.8,2.5,2.2c0.9,0.5,1.8,0.7,2.9,0.7
	c1.3,0,2.4-0.4,3.3-1.1c0.9-0.8,1.3-1.7,1.3-2.8c0-1-0.3-1.9-0.9-2.6c-0.6-0.7-1.6-1.6-3.1-2.5c-2.1-1.4-3.6-2.6-4.5-3.8
	c-0.9-1.2-1.3-2.5-1.3-4c0-2.1,0.8-3.8,2.4-5.2c1.6-1.4,3.6-2.1,6-2.1c1,0,1.8,0.1,2.6,0.3c0.8,0.2,1.5,0.4,2.1,0.8V56.4z"/>
<path class="st4" d="M141.6,70l9.1-19.4h0l9.1,19.4c1,2.2,1.9,3.9,2.6,5c0.7,1.1,1.3,2,2,2.7H161h-3.3c0.1-0.5,0.1-1.4-0.2-2.5
	c-0.3-1.1-0.7-2.3-1.2-3.7l-0.9-2h-9.8l-0.1,0.4c-0.7,1.6-1.2,3.1-1.6,4.6c-0.4,1.5-0.5,2.6-0.3,3.2h-3.3H137
	c0.7-0.7,1.4-1.6,2.1-2.8C139.7,73.8,140.6,72.2,141.6,70 M147,66.1h6.9l-3.5-8h0L147,66.1z"/>
<path class="st4" d="M173.9,77.7c0.3-1.2,0.6-2.3,0.7-3.5c0.1-1.1,0.2-2.5,0.2-4.2V58.9c0-1.7-0.1-3.1-0.2-4.2
	c-0.1-1.1-0.4-2.3-0.7-3.5h2.9h2.9c-0.3,1.2-0.6,2.3-0.7,3.5c-0.1,1.1-0.2,2.5-0.2,4.2v15.9c2-0.1,3.7-0.2,5-0.5
	c2.1-0.4,3.9-1,5.5-1.9l-1.1,2.7l-1.1,2.7h-8.3H173.9z"/>
<path class="st4" d="M199.7,77.7c0.3-1.2,0.6-2.3,0.7-3.5c0.1-1.1,0.2-2.5,0.2-4.2V58.9c0-1.7-0.1-3.1-0.2-4.2
	c-0.1-1.1-0.4-2.3-0.7-3.5h5h9.7l-1,2.2l-1,2.2c-1-0.5-2-0.9-3-1.1c-1-0.2-2.2-0.3-3.6-0.3h-1.1v8.7h8.8l-1.2,2.2l-1.2,2.2
	c-0.9-0.5-1.7-0.9-2.7-1.1c-0.9-0.2-2.1-0.3-3.5-0.3h-0.2v9.2c2.4-0.1,4.4-0.2,5.9-0.5c2.1-0.4,3.9-1,5.5-1.9l-1.1,2.7l-1.1,2.7
	h-9.2H199.7z"/>
<path class="st0" d="M226.5,70V58.9c0-1.7-0.1-3.1-0.2-4.2c-0.1-1.1-0.4-2.3-0.7-3.5h2.9h2.9c-0.3,1.2-0.6,2.3-0.7,3.5
	c-0.1,1.1-0.2,2.5-0.2,4.2v3.6h11.3v-3.6c0-1.7-0.1-3.1-0.2-4.2c-0.1-1.1-0.4-2.3-0.7-3.5h2.9h2.9c-0.3,1.2-0.6,2.3-0.7,3.5
	c-0.1,1.1-0.2,2.5-0.2,4.2V70c0,1.7,0.1,3.1,0.2,4.2c0.1,1.1,0.4,2.3,0.7,3.5h-2.9h-2.9c0.3-1.2,0.6-2.3,0.7-3.5
	c0.1-1.1,0.2-2.5,0.2-4.2v-4.1h-11.3V70c0,1.7,0.1,3.1,0.2,4.2c0.1,1.1,0.4,2.3,0.7,3.5h-2.9h-2.9c0.3-1.2,0.6-2.3,0.7-3.5
	C226.4,73.1,226.5,71.7,226.5,70"/>
<path class="st0" d="M259,77.7c0.3-1.2,0.6-2.3,0.7-3.5c0.1-1.1,0.2-2.5,0.2-4.2V58.9c0-1.7-0.1-3.1-0.2-4.2
	c-0.1-1.1-0.4-2.3-0.7-3.5h5h9.7l-1,2.2l-1,2.2c-1-0.5-2-0.9-3-1.1c-1-0.2-2.2-0.3-3.6-0.3h-1.1v8.7h8.8l-1.2,2.2l-1.2,2.2
	c-0.9-0.5-1.7-0.9-2.7-1.1c-0.9-0.2-2.1-0.3-3.5-0.3h-0.2v9.2c2.4-0.1,4.4-0.2,5.9-0.5c2.1-0.4,3.9-1,5.5-1.9l-1.1,2.7l-1.1,2.7
	h-9.2H259z"/>
<path class="st0" d="M286,70V58.9c0-1.7-0.1-3.1-0.2-4.2c-0.1-1.1-0.4-2.3-0.7-3.5h2.9h2c3.4,0,6,0.7,7.8,2c1.8,1.4,2.7,3.3,2.7,5.8
	c0,2.3-1,4.1-3,5.5c-0.6,0.4-1.3,0.8-2.1,1.1l1.9,2.9c0.9,1.3,1.9,2.7,3,4c1.1,1.3,2.6,3.1,4.5,5.2h-4.7c-1.4-1.2-3-2.8-4.8-5
	c-1.8-2.2-3.4-4.2-4.7-6.2l-0.7-1.1V70c0,1.7,0.1,3.1,0.2,4.2c0.1,1.1,0.4,2.3,0.7,3.5H288H285c0.3-1.2,0.6-2.3,0.7-3.5
	C285.9,73.1,286,71.7,286,70 M290,64.5c1.7-0.1,3.2-0.6,4.3-1.5c1.3-1,1.9-2.4,1.9-4.1c0-1.5-0.6-2.8-1.8-3.7
	c-1.1-0.9-2.6-1.3-4.4-1.4V64.5z"/>
<path class="st0" d="M316.2,74.2c-2.5-2.6-3.7-5.9-3.7-9.9c0-3.9,1.3-7.1,4-9.6c2.6-2.6,6-3.8,9.9-3.8c3.8,0,6.9,1.3,9.4,4
	c2.5,2.6,3.7,6,3.7,9.9c0,3.9-1.3,7.1-4,9.6c-2.6,2.6-6,3.8-10,3.8C321.8,78.1,318.7,76.8,316.2,74.2 M332.6,72.2
	c1.7-1.8,2.5-4.1,2.5-6.8c0-3.3-0.9-6-2.7-8.1c-1.8-2.2-4.1-3.2-6.8-3.2c-2.5,0-4.6,0.9-6.2,2.7c-1.7,1.8-2.5,4.1-2.5,6.9
	c0,3.2,0.9,5.9,2.7,8.1c1.8,2.2,4.1,3.2,6.8,3.2C328.9,74.9,331,74,332.6,72.2"/>
<path class="st11" d="M34,10.8c-2,1.5-4.1,2.9-6.1,4.4c-1.6,1.1-3.3,2.1-5.1,2.6c-2.2,0.6-4.5,0.1-5.6-2.4c-1.1-2.5-0.5-4.7,1.6-6.4
	c0.7-0.6,1.5-1.2,2.1-1.8C23,5.1,24.2,2.5,24.1,0c0,0,0,0,0,0c-3.6,2.4-7.3,4.8-11,7.1c-1.6,1-2.8,2-3.7,3.2
	c-1.9,2.5-2.4,5.5-1.6,9.4c1,5,3.9,8.7,7.9,11c0,0,0.1,0.1,0.1,0.1c0.9,1.6,2,3,3,4.4c0,0.1,0.1,0.1,0.1,0.2c0,0.4-0.1,0.8-0.1,1.3
	c-0.3,2.3-0.4,4.6-0.6,7c-0.1,1.4-0.2,3-0.3,4.4l5.6-7.7c0.8-1.2,1.5-2.5,2.3-3.7c0.5-0.8,1.2-1.8,1.9-1.9c3-0.1,9.9-0.1,15.1-0.1
	c0.1,0.1,0.2,0.2,0.3,0.3L42.6,47c-0.1,1.1,0.8,2.1,2,2.2c0.3,0,0.6,0,1,0c0.1,0,0.2,0,0.3,0c0.1,0,0.2,0,0.3,0c0.3,0,0.7,0,1,0
	c1.2,0,2-1,2-2.2l-0.6-12.1c0.1-0.1,0.2-0.2,0.3-0.3c5.2,0,12.1,0,15.1,0.1c0.6,0,1.4,1.1,1.9,1.9c0.8,1.2,1.5,2.5,2.3,3.7l5.6,7.7
	c-0.1-1.4-0.2-2.9-0.3-4.4c-0.1-2.3-0.3-4.6-0.6-7c-0.1-0.4-0.1-0.9-0.1-1.3c0-0.1,0-0.1,0.1-0.2c1.1-1.4,2.1-2.9,3-4.4
	c0,0,0.1-0.1,0.1-0.1c4.1-2.2,6.9-6,7.9-11c0.8-3.9,0.3-6.9-1.6-9.4c-0.9-1.2-2.1-2.3-3.7-3.2C75,4.8,71.4,2.3,67.7,0c0,0,0,0,0,0
	c0,2.5,1.1,5.1,3.2,7.2C71.6,7.8,72.3,8.4,73,9c2.1,1.7,2.7,3.9,1.6,6.4c-1.1,2.5-3.4,3-5.6,2.4c-1.8-0.5-3.5-1.5-5.1-2.6
	c-2.1-1.4-4.1-2.9-6.1-4.4l-10-7.2c-1.3-0.9-2.4-0.9-3.7,0"/>
<path class="st12" d="M34,10.8c-2,1.5-4.1,2.9-6.1,4.4c-1.6,1.1-3.3,2.1-5.1,2.6c-2.2,0.6-4.5,0.1-5.6-2.4c-1.1-2.5-0.5-4.7,1.6-6.4
	c0.7-0.6,1.5-1.2,2.1-1.8C23,5.1,24.2,2.5,24.1,0c0,0,0,0,0,0c-3.6,2.4-7.3,4.8-11,7.1c-1.6,1-2.8,2-3.7,3.2
	c-1.9,2.5-2.4,5.5-1.6,9.4c1,5,3.9,8.7,7.9,11c0,0,0.1,0.1,0.1,0.1c0.9,1.6,2,3,3,4.4c0,0.1,0.1,0.1,0.1,0.2c0,0.4-0.1,0.8-0.1,1.3
	c-0.3,2.3-0.4,4.6-0.6,7c-0.1,1.4-0.2,3-0.3,4.4l5.6-7.7c0.8-1.2,1.5-2.5,2.3-3.7c0.5-0.8,1.2-1.8,1.9-1.9c3-0.1,9.9-0.1,15.1-0.1
	c0.1,0.1,0.2,0.2,0.3,0.3L42.6,47c-0.1,1.1,0.8,2.1,2,2.2c0.3,0,0.6,0,1,0c0.1,0,0.2,0,0.3,0V3c-0.6,0-1.2,0.2-1.9,0.7"/>
<path class="st13" d="M58.7,32.9c0.3-0.1,0.9,0,1.2,0c1.4,0.2,2.1,0.3,3.3,0.9c1.3,0.6,2.5,1.6,3.5,2.6c0.5,0.6,2.3,2.6,1.5,3.3
	c-0.8,0.8-2.4-0.5-3.1-1c-2.7-1.8-4.4-3.4-7.9-3.1c-1.3,0.1-2.4-0.1-1.2-1.5C56.6,33.5,57.7,33.1,58.7,32.9"/>
<path class="st13" d="M33.2,32.9c-0.3-0.1-0.9,0-1.2,0c-1.4,0.2-2.1,0.3-3.3,0.9c-1.3,0.6-2.5,1.6-3.5,2.6c-0.5,0.6-2.3,2.6-1.5,3.3
	c0.8,0.8,2.4-0.5,3.1-1c2.7-1.8,4.4-3.4,7.9-3.1c1.3,0.1,2.4-0.1,1.2-1.5C35.2,33.5,34.1,33.1,33.2,32.9"/>
</svg>
