<?xml version="1.0" encoding="utf-8"?>
<!-- Generator: Adobe Illustrator 21.1.0, SVG Export Plug-In . SVG Version: 6.00 Build 0)  -->
<svg version="1.1" id="Layer_1" xmlns="http://www.w3.org/2000/svg" xmlns:xlink="http://www.w3.org/1999/xlink" x="0px" y="0px"
	 viewBox="0 0 27 34.2" style="enable-background:new 0 0 27 34.2;" xml:space="preserve">
<style type="text/css">
	.st0{fill:#008E54;}
	.st1{fill:#CC6F28;}
	.st2{fill:#E8812F;}
	.st3{fill:#D1A471;}
	.st4{fill:#B0612C;}
	.st5{fill:#ECC202;}
	.st6{fill:#413F3F;}
	.st7{fill:#E8BB80;}
	.st8{fill:#D27334;}
	.st9{fill:#FFE1B9;}
	.st10{fill:#2D2D2D;}
	.st11{fill:#515151;}
	.st12{fill:#BB672E;}
</style>
<polygon class="st0" points="14.3,6.1 27,6.1 27,22.4 14.3,29 "/>
<polygon class="st0" points="12.8,6.1 0,6.1 0,22.4 12.8,29 "/>
<path class="st1" d="M27,22.4l-7.8-12.2l-5.6,5.4l-5.6-5.4L0,22.4c0,4.3,2.9,7.1,6,9l0,0c0.3,0.2,0.6,0.4,0.9,0.5
	c1.9,1,3.8,1.6,5.8,2.3c0.5,0.1,1,0.2,1.5,0c2.3-0.7,4.5-1.5,6.6-2.7c0.1,0,0.1-0.1,0.2-0.1l0,0C24.1,29.5,27,26.7,27,22.4"/>
<polygon class="st0" points="12.8,6.1 0,6.1 0,22.4 12.8,29 "/>
<path class="st2" d="M13.5,15.5l-5.6-5.4L0,22.4c0,4.3,2.9,7.1,6,9l0,0c0.3,0.2,0.6,0.4,0.9,0.5c1.9,1,3.8,1.6,5.8,2.3
	c0.3,0.1,0.5,0.1,0.8,0.1C13.5,34.2,13.5,15.5,13.5,15.5z"/>
<path class="st3" d="M13.6,19c4.7,0,7.8-1.8,8.1-4.9c-0.4-0.8-1.1-1.5-1.6-2.3c-0.2-0.4-0.4-0.7-0.7-1.1c-0.1-0.2-0.4-2-0.6-2
	c-0.9,0-3,0-4.5,0l-0.4,0l0.5,5c0,0.3-0.1,0.6-0.5,0.6c-0.1,0-0.2,0-0.3,0c0,0-0.1,0-0.1,0"/>
<path class="st4" d="M16.3,16.3c0.3,0,0.6,0.1,0.9,0.1c1.1,0.3,2.2,0.7,3,1.7c0.9,1.1,1.2,2.6,1.2,4c0.1,1.5-0.1,3-0.3,4.4
	c0,0.3-0.2,0.7-0.1,1c0.1,0.3,0.4,0.5,0.4,0.8c0.1,0.6-0.8,1-0.3,1.5c-0.8,0.2-1.5-0.9-1.4-1.6c0.1-0.5,0.4-0.5,0.4-1
	c-0.1-0.5-0.2-1.1-0.4-1.6c-0.2-1-0.4-2-0.6-3c-0.2-0.8-0.6-1.6-1.5-1.7c-0.9-0.1-1.9,0.2-2.8-0.2c-0.9-0.4-1.3-1.3-1.3-2.1
	c0-0.1-0.1-0.6,0-0.6c0.1-0.1,0.5-0.1,0.6-0.2c0.1-0.1,0.2-0.2,0.4-0.3c0.2-0.1,0.4-0.1,0.6-0.1c0.1-0.1,0.3-0.1,0.4-0.3
	c0.1-0.2,0.1-0.4,0.2-0.5C15.8,16.3,16,16.3,16.3,16.3"/>
<path class="st5" d="M21,27.7l-0.9,0c-0.2,0-0.3-0.1-0.3-0.3l0,0c0-0.2,0.1-0.3,0.3-0.3l0.9,0c0.2,0,0.3,0.1,0.3,0.3l0,0
	C21.3,27.6,21.2,27.7,21,27.7"/>
<rect x="13.6" y="18.1" class="st4" width="0.5" height="0.4"/>
<path class="st6" d="M15.8,12.8c0.4-1.2,2.3-1.1,2.7,0c0.1,0.2,0.4,0.1,0.4-0.1c-0.5-1.4-2.9-1.5-3.4,0C15.4,12.9,15.8,13,15.8,12.8
	"/>
<path class="st3" d="M13.4,19c-4.7,0-7.8-1.8-8.1-4.9c0.4-0.8,1.1-1.5,1.6-2.3c0.2-0.4,0.4-0.7,0.7-1.1c0.1-0.2,0.4-0.5,0.6-0.6
	c0.9,0,3,0,4.5,0l0.4,0l-0.5,3.6c0,0.3,0.1,0.6,0.5,0.6c0.1,0,0.2,0,0.3,0c0,0,0.1,0,0.1,0"/>
<path class="st7" d="M13.4,19c-4.7,0-7.8-1.8-8.1-4.9c0.4-0.8,1.1-1.5,1.6-2.3c0.2-0.4,0.4-0.7,0.7-1.1C7.8,10.5,8,9.5,8.2,9.5
	c0.9,0,3,0,4.5,0l0.4,0l-0.5,4.3c0,0.3,0.1,0.6,0.5,0.6c0.1,0,0.2,0,0.3,0c0,0,0.1,0,0.1,0"/>
<path class="st8" d="M10.8,16.3c-0.3,0-0.6,0.1-0.9,0.1c-1.1,0.3-2.2,0.7-3,1.7c-0.9,1.1-1.2,2.6-1.2,4c-0.1,1.5,0.1,3,0.3,4.4
	c0,0.3,0.2,0.7,0.1,1c-0.1,0.3-0.4,0.5-0.4,0.8c-0.1,0.6,0.8,1,0.3,1.5c0.8,0.2,1.5-0.9,1.4-1.6c-0.1-0.5-0.4-0.5-0.4-1
	c0.1-0.5,0.2-1.1,0.4-1.6c0.2-1,0.4-2,0.6-3c0.2-0.8,0.6-1.6,1.5-1.7c0.9-0.1,1.9,0.2,2.8-0.2c0.9-0.4,1.3-1.2,1.3-2.1
	c0-0.1,0.1-0.6,0-0.6c-0.1-0.1-0.5-0.1-0.6-0.2c-0.1-0.1-0.2-0.2-0.4-0.3c-0.2-0.1-0.4-0.1-0.6-0.1c-0.1-0.1-0.3-0.1-0.4-0.3
	c-0.1-0.2-0.1-0.4-0.2-0.5C11.3,16.3,11.1,16.3,10.8,16.3"/>
<path class="st5" d="M6.1,27.7l0.9,0c0.2,0,0.3-0.1,0.3-0.3l0,0c0-0.2-0.1-0.3-0.3-0.3l-0.9,0c-0.2,0-0.3,0.1-0.3,0.3l0,0
	C5.7,27.6,5.9,27.7,6.1,27.7"/>
<rect x="13" y="18.1" class="st8" width="0.5" height="0.6"/>
<polygon class="st4" points="14,18.1 13.5,18.1 13.5,18.7 13.5,18.7 14,18.7 "/>
<path class="st6" d="M11.2,12.8c-0.4-1.2-2.3-1.1-2.7,0c-0.1,0.2-0.4,0.1-0.4-0.1c0.5-1.4,2.9-1.5,3.4,0
	C11.6,12.9,11.3,13,11.2,12.8"/>
<path class="st9" d="M14.9,15.8c-0.1,0-0.2-0.1-0.2-0.2L14.4,13c-0.2,0.2-0.5,1.4-0.9,1.4l0,0l0,0c-0.3,0-0.6-1.2-0.9-1.4l-0.3,2.6
	c0,0.1-0.1,0.2-0.2,0.2c-0.6,0-1.1,0.4-1.1,0.8c0,0.5,0.5,0.8,1.1,0.8l0,0c0.1,0,0.3,0.1,0.4,0.2c0.2,0.2,0.5,0.4,0.9,0.4
	c0,0,0,0,0.1,0c0,0,0,0,0.1,0c0.4,0,0.7-0.1,0.9-0.4c0.1-0.1,0.2-0.2,0.4-0.2l0,0c0.6,0,1.1-0.4,1.1-0.8
	C16,16.2,15.5,15.8,14.9,15.8"/>
<path class="st10" d="M10,3.2C9.4,3.6,8.8,4,8.2,4.5c-0.5,0.3-1,0.6-1.5,0.8c-0.6,0.2-1.3,0-1.6-0.7S4.9,3.2,5.6,2.7
	C5.8,2.5,6,2.3,6.2,2.1c0.6-0.6,1-1.4,0.9-2.1l0,0C6.1,0.7,5,1.4,3.9,2.1C3.4,2.4,3.1,2.7,2.8,3C2.2,3.8,2.1,4.7,2.3,5.8
	C2.6,7.3,3.5,8.4,4.7,9l0,0c0.3,0.5,0.6,0.9,0.9,1.3c0,0,0,0,0,0.1c0,0.1,0,0.2,0,0.4c-0.1,0.7-0.1,1.4-0.2,2.1
	c0,0.4-0.1,0.9-0.1,1.3l1.6-2.3c0.2-0.4,0.4-0.7,0.7-1.1c0.1-0.2,0.4-0.5,0.6-0.6c0.9,0,2.9,0,4.4,0c0,0,0.1,0.1,0.1,0.1l-0.1,3.5
	c0,0.3,0.2,0.6,0.6,0.6c0.1,0,0.2,0,0.3,0c0,0,0.1,0,0.1,0c0,0,0.1,0,0.1,0c0.1,0,0.2,0,0.3,0c0.4,0,0.6-0.3,0.6-0.6l-0.2-3.6
	c0,0,0.1-0.1,0.1-0.1c1.5,0,3.6,0,4.4,0c0.2,0,0.4,0.3,0.6,0.6c0.2,0.4,0.4,0.7,0.7,1.1l1.6,2.3c0-0.4-0.1-0.9-0.1-1.3
	c0-0.7-0.1-1.4-0.2-2.1c0-0.1,0-0.3,0-0.4c0,0,0,0,0-0.1c0.3-0.4,0.6-0.9,0.9-1.3l0,0c1.2-0.6,2-1.8,2.3-3.2c0.2-1.1,0.1-2-0.5-2.8
	c-0.3-0.4-0.6-0.7-1.1-0.9C22.1,1.4,21,0.7,19.9,0l0,0c0,0.7,0.3,1.5,0.9,2.1c0.2,0.2,0.4,0.4,0.6,0.5c0.6,0.5,0.8,1.1,0.5,1.9
	s-1,0.9-1.6,0.7c-0.5-0.1-1-0.4-1.5-0.8c-0.6-0.4-1.2-0.9-1.8-1.3l-2.9-2.1c-0.4-0.3-0.7-0.3-1.1,0"/>
<path class="st11" d="M10,3.2C9.4,3.6,8.8,4,8.2,4.5c-0.5,0.3-1,0.6-1.5,0.8c-0.6,0.2-1.3,0-1.6-0.7S4.9,3.2,5.6,2.7
	C5.8,2.5,6,2.3,6.2,2.1c0.6-0.6,1-1.4,0.9-2.1l0,0C6.1,0.7,5,1.4,3.9,2.1C3.4,2.4,3.1,2.7,2.8,3C2.2,3.8,2.1,4.7,2.3,5.8
	C2.6,7.3,3.5,8.4,4.7,9l0,0c0.3,0.5,0.6,0.9,0.9,1.3c0,0,0,0,0,0.1c0,0.1,0,0.2,0,0.4c-0.1,0.7-0.1,1.4-0.2,2.1
	c0,0.4-0.1,0.9-0.1,1.3l1.6-2.3c0.2-0.4,0.4-0.7,0.7-1.1c0.1-0.2,0.4-0.5,0.6-0.6c0.9,0,2.9,0,4.4,0c0,0,0.1,0.1,0.1,0.1l-0.1,3.5
	c0,0.3,0.2,0.6,0.6,0.6c0.1,0,0.2,0,0.3,0c0,0,0.1,0,0.1,0l0-13.6c-0.2,0-0.4,0.1-0.6,0.2"/>
<path class="st12" d="M17.3,9.7c0.1,0,0.3,0,0.4,0c0.4,0.1,0.6,0.1,1,0.3c0.4,0.2,0.7,0.5,1,0.8c0.1,0.2,0.7,0.8,0.4,1
	c-0.2,0.2-0.7-0.1-0.9-0.3c-0.8-0.5-1.3-1-2.3-0.9c-0.4,0-0.7,0-0.4-0.4C16.7,9.8,17,9.7,17.3,9.7"/>
<path class="st12" d="M9.8,9.7c-0.1,0-0.3,0-0.4,0C9,9.7,8.8,9.8,8.5,9.9c-0.4,0.2-0.7,0.5-1,0.8c-0.1,0.2-0.7,0.8-0.4,1
	c0.2,0.2,0.7-0.1,0.9-0.3c0.8-0.5,1.3-1,2.3-0.9c0.4,0,0.7,0,0.4-0.4C10.4,9.9,10.1,9.7,9.8,9.7"/>
</svg>
