<?xml version="1.0" encoding="utf-8"?>
<!-- Generator: Adobe Illustrator 21.1.0, SVG Export Plug-In . SVG Version: 6.00 Build 0)  -->
<svg version="1.1" id="Layer_1" xmlns="http://www.w3.org/2000/svg" xmlns:xlink="http://www.w3.org/1999/xlink" x="0px" y="0px"
	 viewBox="0 0 115 27.9" style="enable-background:new 0 0 115 27.9;" xml:space="preserve">
<style type="text/css">
	.st0{fill:#FFFFFF;}
	.st1{opacity:0.68;fill:#FFFFFF;enable-background:new    ;}
	.st2{opacity:0.7;fill:#FFFFFF;enable-background:new    ;}
</style>
<g>
	<g>
		<g>
			<g>
				<path class="st0" d="M88.6,6.2h-6.3c-0.4,0-0.8,0.3-0.9,0.7l-2.6,16.2c-0.1,0.3,0.2,0.6,0.5,0.6h3.2c0.3,0,0.6-0.2,0.6-0.5
					l0.7-4.6c0.1-0.4,0.4-0.7,0.9-0.7h2c4.2,0,6.6-2,7.2-6c0.3-1.7,0-3.1-0.8-4.1C92.3,6.8,90.7,6.2,88.6,6.2z M89.3,12.2
					c-0.3,2.3-2.1,2.3-3.8,2.3h-1l0.7-4.2c0-0.3,0.3-0.4,0.5-0.4h0.4c1.1,0,2.2,0,2.8,0.7C89.3,10.8,89.4,11.4,89.3,12.2z"/>
				<path class="st0" d="M43.5,6.2h-6.3c-0.4,0-0.8,0.3-0.9,0.7l-2.6,16.2c-0.1,0.3,0.2,0.6,0.5,0.6h3c0.4,0,0.8-0.3,0.9-0.7
					l0.7-4.4c0.1-0.4,0.4-0.7,0.9-0.7h2c4.2,0,6.6-2,7.2-6c0.3-1.7,0-3.1-0.8-4.1C47.2,6.8,45.6,6.2,43.5,6.2z M44.2,12.2
					c-0.3,2.3-2.1,2.3-3.8,2.3h-1l0.7-4.2c0-0.3,0.3-0.4,0.5-0.4h0.4c1.1,0,2.2,0,2.8,0.7C44.2,10.8,44.3,11.4,44.2,12.2z"/>
				<path class="st0" d="M62.4,12.1h-3c-0.3,0-0.5,0.2-0.5,0.4l-0.1,0.8l-0.2-0.3c-0.7-1-2.1-1.3-3.6-1.3c-3.3,0-6.2,2.5-6.8,6.1
					c-0.3,1.8,0.1,3.5,1.1,4.7c0.9,1.1,2.2,1.5,3.8,1.5c2.7,0,4.2-1.7,4.2-1.7l-0.1,0.8c-0.1,0.3,0.2,0.6,0.5,0.6h2.7
					c0.4,0,0.8-0.3,0.9-0.7l1.6-10.4C62.9,12.4,62.7,12.1,62.4,12.1z M58.1,18c-0.3,1.7-1.7,2.9-3.4,2.9c-0.9,0-1.6-0.3-2-0.8
					c-0.4-0.5-0.6-1.3-0.5-2.1c0.3-1.7,1.7-2.9,3.4-2.9c0.9,0,1.6,0.3,2,0.8C58.1,16.4,58.3,17.1,58.1,18z"/>
				<path class="st0" d="M107.5,12.1h-3c-0.3,0-0.5,0.2-0.5,0.4l-0.1,0.8l-0.2-0.3c-0.7-1-2.1-1.3-3.6-1.3c-3.3,0-6.2,2.5-6.8,6.1
					c-0.3,1.8,0.1,3.5,1.1,4.7c0.9,1.1,2.2,1.5,3.8,1.5c2.7,0,4.2-1.7,4.2-1.7l-0.1,0.8c-0.1,0.3,0.2,0.6,0.5,0.6h2.7
					c0.4,0,0.8-0.3,0.9-0.7l1.6-10.4C108,12.4,107.8,12.1,107.5,12.1z M103.2,18c-0.3,1.7-1.7,2.9-3.4,2.9c-0.9,0-1.6-0.3-2-0.8
					c-0.4-0.5-0.6-1.3-0.5-2.1c0.3-1.7,1.7-2.9,3.4-2.9c0.9,0,1.6,0.3,2,0.8C103.2,16.4,103.4,17.1,103.2,18z"/>
				<path class="st0" d="M78.5,12.1h-3c-0.3,0-0.6,0.1-0.7,0.4l-4.2,6.2l-1.8-5.9c-0.1-0.4-0.5-0.6-0.8-0.6h-3
					c-0.4,0-0.6,0.4-0.5,0.7l3.4,9.8l-3.2,4.4c-0.2,0.3,0,0.8,0.4,0.8h3c0.3,0,0.6-0.1,0.7-0.4l10.1-14.6
					C79.2,12.6,78.9,12.1,78.5,12.1z"/>
				<path class="st0" d="M111,6.7l-2.6,16.5c-0.1,0.3,0.2,0.6,0.5,0.6h2.6c0.4,0,0.8-0.3,0.9-0.7L115,6.8c0.1-0.3-0.2-0.6-0.5-0.6
					h-2.9C111.3,6.2,111.1,6.4,111,6.7z"/>
			</g>
		</g>
	</g>
	<g>
		<path class="st1" d="M21.3,7.1c0.3-2.2,0-3.6-1.2-5C18.8,0.6,16.5,0,13.5,0H4.8C4.2,0,3.7,0.4,3.6,1L0,23.9
			c-0.1,0.5,0.3,0.9,0.7,0.9h5.4l-0.4,2.3c-0.1,0.4,0.2,0.8,0.6,0.8h4.5c0.5,0,1-0.4,1.1-0.9l0-0.2l0.9-5.4l0.1-0.3
			c0.1-0.5,0.5-0.9,1.1-0.9h0.7c4.4,0,7.8-1.8,8.8-6.9c0.4-2.1,0.2-3.9-0.9-5.2C22.2,7.7,21.8,7.3,21.3,7.1L21.3,7.1"/>
		<path class="st2" d="M21.3,7.1c0.3-2.2,0-3.6-1.2-5C18.8,0.6,16.5,0,13.5,0H4.8C4.2,0,3.7,0.4,3.6,1L0,23.9
			c-0.1,0.5,0.3,0.9,0.7,0.9h5.4l1.3-8.5l0,0.3c0.1-0.6,0.6-1,1.2-1h2.5c5,0,8.9-2,10.1-7.9C21.3,7.4,21.3,7.3,21.3,7.1"/>
		<path class="st0" d="M8.9,7.1c0.1-0.4,0.3-0.7,0.6-0.8C9.6,6.2,9.8,6.2,10,6.2h6.8c0.8,0,1.6,0.1,2.2,0.2c0.2,0,0.4,0.1,0.6,0.1
			c0.2,0,0.4,0.1,0.5,0.1c0.1,0,0.2,0.1,0.3,0.1c0.3,0.1,0.7,0.2,0.9,0.4c0.3-2.2,0-3.6-1.2-5C18.8,0.6,16.5,0,13.5,0H4.8
			C4.2,0,3.7,0.4,3.6,1L0,23.9c-0.1,0.5,0.3,0.9,0.7,0.9h5.4l1.3-8.5L8.9,7.1z"/>
	</g>
</g>
</svg>
