<?xml version="1.0" encoding="utf-8"?>
<!-- Generator: Adobe Illustrator 21.1.0, SVG Export Plug-In . SVG Version: 6.00 Build 0)  -->
<svg version="1.1" id="Layer_1" xmlns="http://www.w3.org/2000/svg" xmlns:xlink="http://www.w3.org/1999/xlink" x="0px" y="0px"
	 viewBox="0 0 95 30.8" style="enable-background:new 0 0 95 30.8;" xml:space="preserve">
<style type="text/css">
	.st0{fill:#FFFFFF;}
	.st1{opacity:0.68;fill:#FFFFFF;enable-background:new    ;}
	.st2{opacity:0.7;fill:#FFFFFF;enable-background:new    ;}
</style>
<g>
	<path class="st0" d="M26.4,7.2L14.1,0.2c-0.4-0.2-0.9-0.2-1.3,0L0.6,7.2C0.3,7.4,0,7.9,0,8.3v14.2c0,0.4,0.3,0.9,0.6,1.1l12.2,7.1
		c0.4,0.2,0.9,0.2,1.3,0l12.2-7.1c0.3-0.2,0.6-0.7,0.6-1.1V8.3C27,7.9,26.7,7.4,26.4,7.2z M11.5,22.9c-0.1,0.1-0.4,0.6-1,0.6
		s-0.9-0.5-1-0.6l-5.5-8.1C3.7,14.3,3,12.8,3.9,11c0.8-1.6,2.2-2.3,3.6-2.3c0.5,0,1.1,0.1,1.6,0.3l-1.1,2c-0.2,0-0.3-0.1-0.5-0.1
		c-1.3,0-2,1.4-1.4,2.4c0.6,0.9,1.4,2.2,1.4,2.2l3.1,4.4l0,0l1.2-1.7l1.4,2.1L11.5,22.9z M17.7,22.9c-0.1,0.1-0.4,0.6-1,0.6
		c-0.6,0-0.9-0.5-1-0.5l-2.1-3.3l-1.4-2.1c-0.9-1.3-1.9-2.8-1.9-2.8c-0.3-0.5-1.1-1.9-0.2-3.7c0.8-1.6,2.2-2.3,3.6-2.3
		c1.3,0,2.9,0.7,3.6,2.3c0.9,1.9,0.1,3.3-0.2,3.8l-1.9,2.8l1.6,2.5l3.2-4.7v0v0h2.8L17.7,22.9z"/>
	<polygon class="st0" points="34.2,12 38.2,12 38.2,23.2 41.3,23.2 41.3,12 45.2,12 45.2,9.3 34.2,9.3 	"/>
	<path class="st0" d="M13.6,11c-1.3,0-2,1.4-1.4,2.4c0.6,0.9,1.4,2.2,1.4,2.2s0.9-1.3,1.4-2.2C15.6,12.4,14.9,11,13.6,11z"/>
	<path class="st0" d="M76.9,8.9c-3.5,0-5.4,2.2-5.4,5.4v8.9h3.1v-8.9c0-1.4,0.8-2.5,2.3-2.5c1.5,0,2.3,1.3,2.3,2.5v8.9h3.1v-8.9
		C82.4,11.1,80.4,8.9,76.9,8.9z"/>
	<polygon class="st0" points="58.2,16.6 58.1,17.4 58,16.6 55.4,9.3 54.4,9.3 51.9,16.6 51.8,17.4 51.7,16.6 49.8,9.3 46.8,9.3 
		50.7,23.2 52,23.2 54.8,15.4 54.9,14.8 54.9,14.8 55,15.4 57.9,23.2 59.2,23.2 63.1,9.3 60.1,9.3 	"/>
	<polygon class="st0" points="84,9.3 84,12 88,12 88,23.2 91.1,23.2 91.1,12 95,12 95,9.3 	"/>
	<rect x="65.4" y="9.3" class="st0" width="3.1" height="13.8"/>
</g>
</svg>
