<?xml version="1.0" encoding="utf-8"?>
<!-- Generator: Adobe Illustrator 21.1.0, SVG Export Plug-In . SVG Version: 6.00 Build 0)  -->
<svg version="1.1" id="Layer_1" xmlns="http://www.w3.org/2000/svg" xmlns:xlink="http://www.w3.org/1999/xlink" x="0px" y="0px"
	 viewBox="0 0 53.3 32" style="enable-background:new 0 0 53.3 32;" xml:space="preserve">
<style type="text/css">
	.st0{fill:#FFFFFF;}
	.st1{opacity:0.68;fill:#FFFFFF;enable-background:new    ;}
	.st2{opacity:0.7;fill:#FFFFFF;enable-background:new    ;}
</style>
<g>
	<path class="st0" d="M10.9,18.2c0,0.4,0.2,0.7,0.6,0.7c0.7,0,1.2-0.7,1.2-1.7c-0.2,0-0.3,0-0.4,0C11.4,17.2,10.9,17.6,10.9,18.2z"
		/>
	<path class="st0" d="M38.3,18.2c0,0.4,0.2,0.7,0.6,0.7c0.7,0,1.2-0.7,1.2-1.7c-0.2,0-0.3,0-0.4,0C38.8,17.2,38.3,17.6,38.3,18.2z"
		/>
	<path class="st0" d="M25.3,15c-0.5,0-0.9,0.4-1.1,1.2h1.9C26.1,16,26.3,15,25.3,15z"/>
	<path class="st0" d="M48.5,15.2c-0.8,0-1.3,0.9-1.3,2.2c0,0.9,0.3,1.3,0.9,1.3c0.8,0,1.4-0.9,1.4-2.2
		C49.4,15.6,49.1,15.2,48.5,15.2z"/>
	<path class="st0" d="M37.3,0c-4.1,0-7.8,1.5-10.7,4.1C23.8,1.5,20.1,0,16,0C7.2,0,0,7.2,0,16c0,8.8,7.2,16,16,16
		c4.1,0,7.8-1.5,10.7-4.1c2.8,2.5,6.6,4.1,10.7,4.1c8.8,0,16-7.2,16-16C53.3,7.2,46.2,0,37.3,0z M6.7,20.2l1-6.2l-2.2,6.2H4.3
		L4.2,14l-1,6.2H1.5l1.4-8.1h2.5l0.1,5l1.7-5h2.7l-1.3,8.1H6.7z M12.6,20.2l0-0.7c-0.4,0.5-1,0.8-1.8,0.8c-0.9,0-1.6-0.7-1.6-1.8
		c0-1.6,1.1-2.5,3-2.5c0.2,0,0.4,0,0.7,0.1c0.1-0.2,0.1-0.3,0.1-0.4c0-0.4-0.3-0.6-1.1-0.6c-0.9,0-1.6,0.2-1.8,0.3
		c0-0.1,0.2-1.5,0.2-1.5c0.9-0.3,1.4-0.3,2.1-0.3c1.5,0,2.3,0.7,2.3,1.9c0,0.3-0.1,0.8-0.1,1.3c-0.2,1-0.5,3-0.5,3.5
		C13.8,20.2,12.6,20.2,12.6,20.2z M17.7,16.3c0.9,0.4,1.2,0.9,1.2,1.8c0,1.5-0.8,2.2-2.7,2.2c-1.1,0-1.4-0.1-1.8-0.2
		c0-0.1,0.2-1.5,0.2-1.5c0.6,0.2,1,0.3,1.6,0.3c0.7,0,1-0.2,1-0.6c0-0.3-0.1-0.4-0.8-0.7c-0.9-0.4-1.3-1-1.3-1.8
		c0-1.2,0.7-2.2,2.6-2.2c0.4,0,1.1,0.1,1.5,0.1L19,15.1c-0.4-0.1-0.9-0.1-1.2-0.1c-0.6,0-0.9,0.2-0.9,0.5
		C16.9,15.9,16.9,15.9,17.7,16.3z M21.5,18.7c0.2,0,0.4,0,0.5-0.1l-0.2,1.5c-0.5,0.1-0.8,0.2-1.2,0.2c-0.9,0-1.4-0.5-1.4-1.4
		c0-0.3,0.1-1.1,0.2-1.8c0.1-0.6,0.8-4.5,0.8-4.5h1.7l-0.2,1h0.9l-0.2,1.6h-0.9c-0.2,1.3-0.5,2.8-0.5,3
		C20.9,18.6,21.1,18.7,21.5,18.7z M25.5,18.8c0.6,0,1.2-0.1,1.8-0.4L27,20.1c-0.6,0.2-1.2,0.3-1.8,0.3c-1.9,0-2.9-1-2.9-2.9
		c0-2.3,1.3-3.9,3-3.9c1.4,0,2.3,0.9,2.3,2.4c0,0.5-0.1,1-0.2,1.6H24C23.9,18.4,24.5,18.8,25.5,18.8z M29.4,20.2h-1.7l0.1-0.4
		c0.3-2,0.7-4.1,0.9-6.2h1.6c0,0.3-0.1,0.7-0.1,1c0.5-0.8,0.9-1.2,1.7-1c-0.2,0.4-0.5,1.1-0.7,1.9C30.2,15.4,30,16.2,29.4,20.2z
		 M36.1,20.1c-0.6,0.2-1.1,0.2-1.5,0.2c-1.9,0-3-1.3-3-3.5c0-2.9,1.6-4.9,3.9-4.9c0.8,0,1.7,0.3,1.9,0.4L37,14.1
		c-0.6-0.3-1.1-0.4-1.6-0.4c-1.3,0-2.2,1.3-2.2,3c0,1.2,0.6,2,1.6,2c0.4,0,0.9-0.1,1.5-0.4L36.1,20.1z M41.4,20.2
		c-0.2,0-1.4,0-1.4,0l0-0.7c-0.4,0.5-1,0.8-1.8,0.8c-0.9,0-1.6-0.7-1.6-1.8c0-1.6,1.1-2.5,3-2.5c0.2,0,0.4,0,0.7,0.1
		c0.1-0.2,0.1-0.3,0.1-0.4c0-0.4-0.3-0.6-1.1-0.6c-0.8,0-1.5,0.2-1.8,0.3c0-0.1,0.2-1.5,0.2-1.5c0.9-0.3,1.4-0.3,2.1-0.3
		c1.5,0,2.3,0.7,2.3,1.9c0,0.3-0.1,0.8-0.1,1.3C41.8,17.7,41.4,19.7,41.4,20.2z M43.7,20.2H42l0.1-0.4c0.3-2,0.7-4.1,0.9-6.2h1.6
		c0,0.3-0.1,0.7-0.1,1c0.5-0.8,0.9-1.2,1.7-1c-0.2,0.4-0.5,1.1-0.7,1.9C44.5,15.4,44.3,16.2,43.7,20.2z M48.9,20.2l0.1-0.6
		c-0.5,0.5-1,0.7-1.6,0.7c-1.3,0-2.1-1.1-2.1-2.7c0-2.2,1.3-4,2.8-4c0.7,0,1.2,0.3,1.7,0.9l0.4-2.3h1.7l-1.3,8.1
		C50.6,20.2,48.9,20.2,48.9,20.2z"/>
</g>
</svg>
