<?xml version="1.0" encoding="utf-8"?>
<!-- Generator: Adobe Illustrator 21.1.0, SVG Export Plug-In . SVG Version: 6.00 Build 0)  -->
<svg version="1.1" id="Layer_1" xmlns="http://www.w3.org/2000/svg" xmlns:xlink="http://www.w3.org/1999/xlink" x="0px" y="0px"
	 viewBox="0 0 68.1 22" style="enable-background:new 0 0 68.1 22;" xml:space="preserve">
<style type="text/css">
	.st0{fill:#FFFFFF;}
	.st1{opacity:0.68;fill:#FFFFFF;enable-background:new    ;}
	.st2{opacity:0.7;fill:#FFFFFF;enable-background:new    ;}
</style>
<g>
	<polygon class="st0" points="28.2,0.4 23.7,21.7 29.2,21.7 33.7,0.4 	"/>
	<path class="st0" d="M20.1,0.4l-5.7,14.5L12,2.6c-0.3-1.4-1.3-2.2-2.5-2.2H0.1L0,1c1.9,0.4,4.1,1.1,5.4,1.8c0.8,0.4,1,0.8,1.3,1.9
		l4.4,17h5.8l8.9-21.3H20.1z"/>
	<path class="st0" d="M41,6.3c0-0.8,0.7-1.6,2.3-1.8c0.8-0.1,3-0.2,5.4,1l1-4.5c-1.3-0.5-3-0.9-5.2-0.9c-5.4,0-9.3,2.9-9.3,7
		c0,3.1,2.7,4.8,4.8,5.8c2.1,1,2.9,1.7,2.9,2.6c0,1.4-1.7,2.1-3.3,2.1c-2.8,0-4.4-0.7-5.7-1.3l-1,4.7c1.3,0.6,3.7,1.1,6.1,1.1
		c5.8,0,9.6-2.9,9.6-7.3C48.7,9.1,40.9,8.8,41,6.3z"/>
	<path class="st0" d="M63.7,0.4H59C57.9,0.4,57,1,56.6,2l-8.3,19.7h5.8l1.1-3.2h7.1l0.7,3.2h5.1L63.7,0.4z M56.9,14.1l2.9-8l1.7,8
		H56.9z"/>
</g>
</svg>
