<?xml version="1.0" encoding="utf-8"?>
<!-- Generator: Adobe Illustrator 21.1.0, SVG Export Plug-In . SVG Version: 6.00 Build 0)  -->
<svg version="1.1" id="Layer_1" xmlns="http://www.w3.org/2000/svg" xmlns:xlink="http://www.w3.org/1999/xlink" x="0px" y="0px"
	 viewBox="0 0 24 18" style="enable-background:new 0 0 24 18;" xml:space="preserve">
<style type="text/css">
	.st0{fill:#FFD524;}
</style>
<g>
	<polygon class="st0" points="6,12 8,9 6,6 0,6 2,9 0,12 	"/>
	<path class="st0" d="M24,9l-5-3v2h-1.1C17.4,3.5,13.6,0,9,0C7.5,0,6,0.4,4.7,1.1l1.1,1.7C6.8,2.3,7.9,2,9,2c3.5,0,6.4,2.6,6.9,6H9
		v2h6.9c-0.5,3.4-3.4,6-6.9,6c-1.1,0-2.2-0.3-3.2-0.8l-1.1,1.7C6,17.6,7.5,18,9,18c4.6,0,8.4-3.5,8.9-8H19v2L24,9z"/>
</g>
</svg>
