<?xml version="1.0" encoding="utf-8"?>
<!-- Generator: Adobe Illustrator 21.1.0, SVG Export Plug-In . SVG Version: 6.00 Build 0)  -->
<svg version="1.1" id="Layer_1" xmlns="http://www.w3.org/2000/svg" xmlns:xlink="http://www.w3.org/1999/xlink" x="0px" y="0px"
	 viewBox="0 0 77 19" style="enable-background:new 0 0 77 19;" xml:space="preserve">
<style type="text/css">
	.st0{fill:#FFFFFF;}
</style>
<g>
	<g>
		<path class="st0" d="M32.9,5.5c-4.3,0-7.5,2.8-7.5,6.5c0,0.5,0,1,0.2,1.4c0.3,1.6,1.3,3,2.7,4.1c1.2,0.9,3.2,1.4,5.2,1.4
			c1.7,0,4.2-0.4,6.3-2.2v-0.1l-1.3-1.9h-0.1c-0.9,0.6-2.7,1.4-4.4,1.4c-2.1,0-3.6-1.3-3.8-2.8h10l0.1,0c0,0,0-0.8,0-1.2
			C40.3,8.2,37.2,5.5,32.9,5.5z M30.1,10.9c0-1.9,1.5-2.8,2.8-2.8c2.1,0,2.8,1.7,2.8,2.8H30.1z M51.4,5.6c-1.6,0-3.3,0.8-4.1,2.1h0
			V0.6l-0.1-0.1h-5.6l-0.1,0.1l1.1,2.5l0,15.2l0.1,0.1l2.8-0.7c1.2,0.7,2.7,1.2,4.5,1.2c4.7,0,7.5-3,7.5-6.8
			C57.3,8.2,54.9,5.6,51.4,5.6z M47.2,15.8v-3.5c0-0.8,0-3.4,2.4-3.7c0.1,0,0.2,0,0.3,0c1.6,0,2.6,1.6,2.6,3.7
			C52.5,15.8,50.3,16.9,47.2,15.8z M61.8,0c-1.6,0-2.9,1.1-2.9,2.5c0,1.3,1.3,2.5,2.9,2.5c1.6,0,2.9-1.1,2.9-2.5
			C64.7,1.1,63.4,0,61.8,0z M58.8,6.2L58.8,6.2l1,2.6v9.6l0.1,0.1h4.6l0.1-0.1V6.2l-0.1-0.1H58.8z M76.7,15.7l-0.1-0.1
			c-1.1,0.2-3.9,0.7-3.9-1.4V9h3.8l0.1-0.1V6.2l-0.1-0.1h-3.8V3.2l-0.1-0.1h-3.1l-0.1,0.1L68,6.2h-1.2l-0.1,0.1L68,8.8v6.4
			c0,1.5,0.9,3.8,4.2,3.8c1.3,0,3.7-0.4,4.7-0.8l0-0.1L76.7,15.7z M21.4,6.2L21.4,6.2l-3.1,9.1h-0.1l-2.6-9l-0.1-0.1h-5.4l-0.1,0.1
			L11.3,9l-2.4,6.3H8.9l-3.4-9L5.4,6.2H0.1L0,6.2l5.3,12.1l0.1,0.1h5.1l0.1-0.1l2.3-5.7l1.8,5.7l0.1,0.1h5.1l0.1-0.1l5-12.1
			l-0.1-0.1H21.4z"/>
	</g>
</g>
</svg>
