<?xml version="1.0" encoding="utf-8"?>
<!-- Generator: Adobe Illustrator 21.1.0, SVG Export Plug-In . SVG Version: 6.00 Build 0)  -->
<svg version="1.1" id="Layer_1" xmlns="http://www.w3.org/2000/svg" xmlns:xlink="http://www.w3.org/1999/xlink" x="0px" y="0px"
	 viewBox="0 0 56.7 56.7" style="enable-background:new 0 0 56.7 56.7;" xml:space="preserve">
<style type="text/css">
	.st0{fill:#B9785F;}
	.st1{fill:#AA6955;}
	.st2{fill:#FFD782;}
	.st3{fill:#FFC36E;}
</style>
<path class="st0" d="M1.2,49.4C0.5,50.1,0,51,0,52.1c0,1.3,0.6,2.5,1.7,3.3c0.4,0.3,0.9,0.5,1.4,0.6c1.3,0.2,2.5-0.2,3.4-1.1
	L33.1,28l-5.4-5.4L1.2,49.4z"/>
<path class="st1" d="M32.2,28.9l-5.4-5.4c-0.5-0.5-0.5-1.3,0-1.8l3.6-3.6l7.2,7.3L34,28.9C33.5,29.4,32.7,29.4,32.2,28.9z"/>
<g>
	<path class="st0" d="M27.7,18.9L27.7,18.9c-0.5-0.5-0.5-1.3,0-1.8l7.2-7.3c0.5-0.5,1.3-0.5,1.8,0l0,0c0.5,0.5,0.5,1.3,0,1.8
		l-7.2,7.3C29,19.4,28.2,19.4,27.7,18.9z"/>
	<path class="st0" d="M36.7,28L36.7,28c-0.5-0.5-0.5-1.3,0-1.8l7.2-7.3c0.5-0.5,1.3-0.5,1.8,0l0,0c0.5,0.5,0.5,1.3,0,1.8L38.5,28
		C38,28.5,37.2,28.5,36.7,28z"/>
</g>
<polygon class="st2" points="36.7,26.2 29.5,18.9 36.7,11.6 43.9,18.9 "/>
<polygon class="st3" points="36.7,26.2 29.5,18.9 31.3,17.1 38.5,24.4 "/>
<g>
	<path class="st0" d="M18.8,13.5L18.8,13.5c-1-1-1-2.6,0-3.6l9-9.1c1-1,2.6-1,3.6,0l0,0c1,1,1,2.6,0,3.6l-9,9.1
		C21.4,14.5,19.7,14.5,18.8,13.5z"/>
	<path class="st0" d="M42.1,37.1L42.1,37.1c-1-1-1-2.6,0-3.6l9-9.1c1-1,2.6-1,3.6,0l0,0c1,1,1,2.6,0,3.6l-9,9.1
		C44.7,38.1,43.1,38.1,42.1,37.1z"/>
</g>
<g>
	<polygon class="st1" points="30.4,5.3 34.9,9.8 27.7,17.1 23.2,12.6 	"/>
	<polygon class="st1" points="45.7,20.7 50.2,25.3 43,32.5 38.5,28 	"/>
</g>
<g>
	<path class="st3" d="M23.2,14.4L23.2,14.4c-0.5-0.5-0.5-1.3,0-1.8l7.2-7.3c0.5-0.5,1.3-0.5,1.8,0l0,0c0.5,0.5,0.5,1.3,0,1.8
		L25,14.4C24.5,14.9,23.7,14.9,23.2,14.4z"/>
	<path class="st3" d="M41.2,32.5L41.2,32.5c-0.5-0.5-0.5-1.3,0-1.8l7.2-7.3c0.5-0.5,1.3-0.5,1.8,0l0,0c0.5,0.5,0.5,1.3,0,1.8
		L43,32.5C42.5,33,41.7,33,41.2,32.5z"/>
</g>
<path class="st0" d="M53.5,52.4H30.1v-3.2c0-0.6,0.5-1.1,1.1-1.1h21.3c0.6,0,1.1,0.5,1.1,1.1L53.5,52.4L53.5,52.4z"/>
<path class="st1" d="M55.6,55.6H28v-2.2c0-1.2,1-2.2,2.1-2.2h23.4c1.2,0,2.1,1,2.1,2.2L55.6,55.6L55.6,55.6z"/>
<path class="st3" d="M55.6,56.7H28c-0.6,0-1.1-0.5-1.1-1.1l0,0c0-0.6,0.5-1.1,1.1-1.1h27.7c0.6,0,1.1,0.5,1.1,1.1l0,0
	C56.7,56.2,56.2,56.7,55.6,56.7z"/>
</svg>
